<?xml version="1.0" encoding="UTF-8" standalone="no"?>
<!-- Created with Inkscape (http://www.inkscape.org/) -->

<svg
   xmlns:dc="http://purl.org/dc/elements/1.1/"
   xmlns:cc="http://creativecommons.org/ns#"
   xmlns:rdf="http://www.w3.org/1999/02/22-rdf-syntax-ns#"
   xmlns:svg="http://www.w3.org/2000/svg"
   xmlns="http://www.w3.org/2000/svg"
   xmlns:sodipodi="http://sodipodi.sourceforge.net/DTD/sodipodi-0.dtd"
   xmlns:inkscape="http://www.inkscape.org/namespaces/inkscape"
   width="594mm"
   height="420mm"
   viewBox="0 0 2104.7244 1488.189"
   id="svg2"
   version="1.1"
   inkscape:version="0.91 r13725"
   sodipodi:docname="adhiyagya_logo.svg"
   inkscape:export-filename="C:\Users\samip\Desktop\adhiyagya_logo.png"
   inkscape:export-xdpi="90"
   inkscape:export-ydpi="90">
  <defs
     id="defs4" />
  <sodipodi:namedview
     id="base"
     pagecolor="#ffffff"
     bordercolor="#666666"
     borderopacity="1.0"
     inkscape:pageopacity="0"
     inkscape:pageshadow="2"
     inkscape:zoom="0.35"
     inkscape:cx="835.09936"
     inkscape:cy="859.76634"
     inkscape:document-units="px"
     inkscape:current-layer="layer1"
     showgrid="false"
     inkscape:window-width="1366"
     inkscape:window-height="745"
     inkscape:window-x="-8"
     inkscape:window-y="-8"
     inkscape:window-maximized="1" />
  <metadata
     id="metadata7">
    <rdf:RDF>
      <cc:Work
         rdf:about="">
        <dc:format>image/svg+xml</dc:format>
        <dc:type
           rdf:resource="http://purl.org/dc/dcmitype/StillImage" />
        <dc:title></dc:title>
      </cc:Work>
    </rdf:RDF>
  </metadata>
  <g
     inkscape:label="Layer 1"
     inkscape:groupmode="layer"
     id="layer1"
     transform="translate(0,435.82677)">
    <path
       d="m 302.87459,204.37704 c 0,11.32121 -0.0428,48.79513 9.27949,48.79513 l 21.21077,0 2.76912,62.73135 -0.11417,1.3954 -60.98351,0.2361 c 10.8557,-21.81039 23.86016,-34.77225 23.86016,-69.9383 0,-23.00072 -34.74825,-50.18915 -57.00251,-50.18915 l -22.53724,0 c -15.66497,0 -62.30407,12.53031 -62.30407,22.3064 l 0,5.57652 c 0,7.67888 4.91901,17.67039 7.13585,24.56139 3.35721,10.44332 5.82407,12.67123 14.07347,17.2629 9.61441,-6.77023 16.60427,-12.54721 33.14175,-12.54721 l 6.62794,0 c 5.94624,0 11.93115,10.69117 11.93115,18.12389 0,18.56017 -39.76984,72.47163 -39.76984,96.19426 l 0,6.97069 c 0,12.13135 4.02124,22.08551 11.93114,26.48708 12.86159,-3.14997 17.78503,-6.97069 35.79184,-6.97069 12.53254,0 25.18864,8.87594 25.18864,22.30623 0,31.6459 -38.32124,47.03751 -61.50908,56.60308 -23.91122,9.86428 -31.25985,-5.05373 -31.25386,27.07797 0.001,11.74242 -1.06888,15.26761 -0.0856,27.89646 0.66788,8.52452 5.77941,16.68219 11.97724,16.68219 16.71158,0 78.84444,-28.84565 92.81361,-36.22735 10.66419,-5.6361 28.47308,-19.462 36.77157,-28.24806 9.22298,-9.76405 17.56158,-29.14623 17.56158,-47.05456 l 0,-1.39387 c 0,-13.76833 -3.61167,-25.69736 -7.94416,-34.86381 -3.567,-7.54971 -14.63919,-21.44371 -15.918,-26.477 l 7.95457,0 25.16781,-1.65315 0.0143,5.8364 c 0,42.61065 1.32576,94.26008 1.32576,139.41108 0,26.97439 0.3525,43.51565 1.27581,68.36575 0.7478,20.13271 4.02723,47.98683 4.02723,66.86463 l 2.91654,2.50971 c 12.87345,0.27726 37.67663,-1.98674 46.13297,-6.69222 l -6.4764,-393.14563 c 9.10395,0.003 15.52798,-2.84926 26.35599,-2.78985 9.27648,0.0457 18.5651,0.005 27.84316,0.005 16.30816,0 43.74644,4.92269 43.74644,-12.54736 0,-11.3654 0.32966,-39.03612 -9.27961,-39.03612 l -83.51634,0 -82.18228,1.70326 -7.962,3.87342 z"
       style="fill:#ffffff;fill-rule:evenodd"
       id="path3442"
       inkscape:connector-curvature="0" />
    <path
       d="m 463.20019,381.03007 c 0,-15.15318 19.22207,-37.29809 35.2939,-37.29809 l 12.27548,0 c 5.29066,0 5.94205,0.98541 10.7415,1.33228 l 5.05623,59.91688 c -10.97078,2.15473 -26.21368,14.68101 -48.02074,14.68101 l -3.06929,0 c -6.38325,0 -12.27708,-16.44312 -12.27708,-22.64624 l 0,-15.98568 z M 585.96051,146.57953 c 0,-5.8575 2.66597,-9.18539 0.11248,-13.35538 -1.1601,-1.89848 -6.06465,-7.95874 -9.32174,-7.95874 l -9.20782,0 -46.01998,1.5853 c -4.23259,2.19862 -7.68797,2.81024 -7.68797,9.07183 0,6.18032 4.93395,25.9189 6.28508,35.83939 1.66816,12.25205 1.09744,24.80906 1.33041,38.81033 0.42098,25.46953 -0.81303,51.34145 -1.47663,77.21022 l -30.5306,-4.83046 -6.29713,0.8339 c -47.65537,1.6e-4 -78.2602,60.01586 -78.2602,103.90487 l 0,2.66428 c 0,47.49437 21.41936,86.58702 76.72476,86.58702 l 3.06926,0 c 31.65086,0 46.00102,-12.68529 65.98488,-17.31613 l -1.6251,1.00098 22.40689,27.40369 c 10.03836,-4.72006 43.66587,-9.79874 43.66587,-19.08152 0,-6.44648 -10.40373,-26.03899 -12.62865,-35.6593 -2.85203,-12.33642 -6.6365,-23.64568 -9.47664,-38.3982 -5.25963,-27.32578 -7.05006,-54.33842 -7.05006,-85.79516 l 0,-162.51708 z"
       style="fill:#ffffff;fill-rule:evenodd"
       id="path3436"
       inkscape:connector-curvature="0" />
    <path
       d="m 736.50306,410.53213 c -2.3323,10.94269 -5.4003,25.62018 -7.47429,36.68576 -1.55895,8.32496 -10.31052,32.48032 -10.31052,32.65652 0,2.19238 4.00246,4.30716 5.57557,5.30967 l 27.84023,2.89566 15.36641,-0.24124 c 22.31632,0 17.90696,-28.54166 19.52386,-49.10288 1.42585,-18.16328 2.15863,-48.7568 1.43461,-66.43026 -0.63193,-15.43735 -6.08419,-44.91041 -10.60008,-57.6008 -4.15118,-11.67024 -3.77392,-14.49804 -13.67902,-21.48599 -3.97123,-2.80029 -19.03086,-9.79783 -24.55638,-9.79783 l -18.11815,0 c -17.10238,0 -27.63357,8.22465 -37.63266,14.60145 -0.51226,-1.01719 -5.07937,-78.20081 -5.57091,-84.95584 -1.14126,-15.66054 -2.4168,-27.36788 -5.0512,-41.64767 -1.74839,-9.47462 -6.10301,-33.38901 -6.10301,-40.64685 l -6.72604,-5.55543 c -11.68341,0.24548 -43.44934,2.90568 -43.44934,12.19266 l 0,6.63709 c 0,6.38977 3.90541,21.93871 5.23115,28.20222 2.08975,9.86753 1.78137,18.29435 3.68782,28.34612 2.48729,13.11405 6.27843,45.12063 6.46465,57.55552 0.64799,42.94447 2.59208,84.8362 1.34121,127.47989 l -2.26663,92.93163 c 9.62811,5.09946 56.62282,3.61685 56.62282,-13.28871 l 0,-70.351 -1.63733,-31.84334 c 5.90117,-8.05988 18.27635,-15.94185 32.30139,-15.94185 25.91964,0 22.77808,39.9581 17.78482,63.3955 z"
       style="fill:#ffffff;fill-rule:evenodd"
       id="path3434"
       inkscape:connector-curvature="0" />
    <path
       d="m 890.91399,435.16531 c -10.88502,-19.2174 -4.34777,-47.55794 -8.45415,-71.69979 -1.54666,-9.08409 -2.56625,-28.87664 -3.22703,-37.27589 -0.96437,-12.29405 -2.89253,-25.12746 -2.89253,-36.23966 -7.1034,-9.79829 -14.84292,-10.73485 -31.96006,-10.73485 l -11.62077,0 c -10.34823,0 -17.56906,2.22934 -21.79119,8.05114 6.17979,12.7728 10.18836,95.55883 10.20463,118.04821 0.013,16.44212 1.30815,45.98077 5.62368,57.87278 3.23188,8.90582 1.89073,17.18243 11.20141,21.85689 3.93509,1.97606 20.9135,6.17975 26.71986,6.17975 l 4.3575,0 c 15.20678,0 28.97461,-6.63569 35.97016,-15.08072 9.87196,-11.9164 6.15879,-22.06453 6.15879,-39.93351 -1.42071,-0.69453 -5.38227,-2.94512 -7.26327,-2.6837 l -13.02703,1.63935 z"
       style="fill:#ffffff;fill-rule:evenodd"
       id="path3426"
       inkscape:connector-curvature="0" />
    <path
       d="m 922.10521,308.67358 c 0,19.21801 18.39163,106.2449 24.31134,120.65269 6.47948,15.77255 12.86525,39.08648 24.29685,49.71619 5.46797,5.08578 14.7774,13.25663 23.51498,14.29853 18.35612,2.18826 19.24942,-1.26913 33.06542,-1.26913 l 4.3227,0 0,4.01613 c 0,19.95485 -10.0863,40.02894 -10.0863,54.88664 -2.8305,1.39148 -4.2503,2.67741 -8.6469,2.67741 l -20.1728,0 c -17.28204,0 -40.7255,-10.70953 -46.10958,-10.70953 l -4.32232,0 c -2.14917,7.47665 -34.58415,32.85165 -34.58415,37.48256 l 0,2.67743 c 0,8.19843 33.9417,23.09055 42.74175,27.22719 13.07724,6.14577 38.75271,11.59508 58.1244,11.59508 25.1109,0 38.0896,-14.70289 50.7922,-26.44139 8.2652,-7.636 10.4379,-11.13024 15.0714,-22.14155 2.1954,-5.21953 4.4812,-9.27478 6.0699,-13.10324 2.4307,-5.85878 0.4376,-9.36612 1.8016,-15.72859 1.3428,-6.29558 6.7639,-19.67613 9.264,-28.87578 2.9105,-10.70156 4.2457,-18.74506 6.6855,-29.93407 3.1156,-14.30024 8.2999,-48.19166 8.2999,-64.5773 0,-23.85204 0.4375,-50.4125 -1.4334,-73.63837 -1.8016,-22.34216 -7.218,-44.56026 -7.218,-66.92363 -3.0312,-4.20522 -11.4821,-12.04668 -18.7318,-12.04668 l -4.3212,0 c -16.5501,0 -36.0241,6.97398 -36.0241,22.75636 l 0,14.72564 4.0888,40.18546 0.2263,34.78025 c 0,17.82052 -4.0783,45.51581 -21.6136,45.51581 -23.47995,0 -28.50885,-50.08469 -30.25456,-73.63354 -1.04108,-14.02294 -4.4148,-32.83314 -4.3439,-46.83332 0.15088,-17.24002 -2.10178,-32.14182 -20.15785,-32.14182 l -5.76385,0 c -11.52361,0 -38.9048,9.65139 -38.9048,17.40152 l 0,17.40305 z"
       style="fill:#ffffff;fill-rule:evenodd"
       id="path3440"
       inkscape:connector-curvature="0" />
    <path
       d="m 1168.0872,428.70108 c 0,-23.25684 30.044,-25.27434 48.4406,-16.27899 l 1.8168,28.46662 -0.3535,4.09123 c -7.8788,1.94482 -15.3164,13.56582 -30.8233,13.56582 -12.619,0 -19.0837,-17.45219 -19.0837,-29.84468 z m -35.2285,-132.94267 c 1.3372,9.58188 3.4937,39.34063 13.2123,39.34063 l 2.9357,0 c 11.9918,0 27.8799,-10.85267 42.5677,-10.85267 18.999,0 23.4856,18.01895 23.4856,35.27101 l 0,5.42633 c -15.819,-1.21832 -21.6552,-6.86554 -39.841,-1.54993 -12.5252,3.66158 -21.7012,6.50522 -30.2823,14.06641 -15.8313,13.94574 -25.2885,32.42233 -25.2885,60.73683 l 0,4.06974 c 0,31.5202 30.3114,61.04422 64.5868,61.04422 l 1.4602,0 c 17.0748,0 48.2517,-14.95371 51.3764,-25.77319 8.9009,0.6834 21.409,10.58318 30.977,13.42365 18.7178,5.55839 19.8138,6.32025 29.2049,-6.64248 0,-8.88463 0.5533,-15.81949 1.5416,-24.35058 0.6609,-5.65601 7.267,-15.68079 7.267,-19.0582 0,-0.1658 -2.6191,-4.8744 -2.9357,-5.42619 -11.9272,0 -33.7621,-4.54395 -33.7621,-16.27899 0,-9.63809 8.2952,-36.09875 10.919,-48.2418 3.34,-15.47088 0.4765,-36.20457 -2.6499,-51.64402 -5.2734,-25.99796 -39.1602,-49.33411 -72.8546,-49.33411 -32.0437,0 -59.2027,8.21376 -71.9261,25.77334 z"
       style="fill:#ffffff;fill-rule:evenodd"
       id="path3432"
       inkscape:connector-curvature="0" />
    <path
       d="m 1380.0391,383.1399 c 0,-23.63715 29.7164,-53.34053 48.631,-61.4163 l 4.6896,78.24107 1.577,-0.089 c 0.2136,3.59232 -30.0219,18.14567 -39.2172,18.14567 -9.6651,0 -15.687,-10.48988 -15.687,-19.54151 l 0,-15.35237 z m 122.3595,-65.60365 c 1.0184,-2.01815 1.5768,-5.33008 1.5768,-8.37498 l 0,-1.39599 c 0,-19.0417 -6.8725,-20.85068 -19.0789,-29.08444 -6.9596,-4.6959 -24.4566,-12.78859 -35.8268,-12.78859 l -6.2731,0 c -37.555,0 -68.0829,15.23844 -85.8722,33.86195 -16.0253,16.77697 -34.9202,49.37231 -34.9202,79.19645 l 0,40.47882 c 0,29.11338 18.1377,56.22566 40.2438,66.08653 34.324,15.30816 58.2468,-2.55015 80.5486,-15.83688 0,36.87287 8.0521,99.10184 -37.6485,99.10184 l -3.139,0 c -19.8001,0 -37.248,-13.95816 -48.6311,-13.95816 l -1.5605,0 c -12.111,0 -37.8686,43.28576 -40.7876,54.43537 25.1401,5.21095 47.9986,18.14565 76.8675,18.14565 l 17.2573,0 c 45.1912,0 66.3515,-12.1646 84.7108,-36.2897 13.0851,-17.20037 21.96,-61.36868 21.96,-90.72847 l 0,-2.79168 c 0,-33.05269 -2.1108,-56.26824 -4.693,-87.94542 -1.9169,-23.50973 -7.4689,-65.44224 -1.5768,-87.92509 l -3.1391,-4.18735 z"
       style="fill:#ffffff;fill-rule:evenodd"
       id="path3438"
       inkscape:connector-curvature="0" />
    <path
       d="m 1726.18,273.64762 c -5.2759,-8.19273 -20.6228,-4.00719 -36.3415,-4.00878 -16.3054,-0.001 -27.4064,-1.0788 -34.1744,8.06657 0,26.82667 -1.4936,51.35568 -1.4936,76.63158 0,14.7315 -3.0806,23.6431 -2.9872,36.28511 0.1556,21.07066 -3.7651,18.57009 -7.4152,30.93534 l -8.9134,0 c -7.4261,0 -20.7738,-17.29108 -22.9193,-24.97298 -2.7663,-9.90068 -6.0009,-29.17478 -6.7944,-39.56186 -2.256,-29.54987 -5.9465,-50.76456 -5.9465,-84.69486 -11.2472,-6.81397 -21.6123,-2.62345 -35.7798,-0.11434 -8.4079,1.49477 -29.5986,4.36213 -29.5986,12.20606 l 0,9.40943 c 0,37.32836 4.6846,77.84987 10.7354,113.97124 4.5477,27.14104 28.9482,72.90288 59.099,72.90288 0.2956,0 24.5762,-4.20696 27.3409,-4.83909 10.1629,-2.32368 17.0102,-5.64629 24.665,-7.25924 -0.5601,22.88336 -4.2786,95.45359 -25.2609,95.45359 -16.4888,0 -41.8507,-17.47769 -52.0042,-17.47769 -16.1934,0 -16.6632,9.09507 -23.3814,17.83306 -3.9114,5.0863 -13.1345,19.67205 -13.7646,26.5319 15.9553,6.92858 21.7166,13.98647 40.6653,19.67047 11.2239,3.36678 36.1829,11.25172 48.4849,11.25172 l 11.8883,0 c 48.8693,0 65.1202,-53.27499 73.6805,-91.97552 11.7871,-53.29628 4.4373,-91.32879 6.2312,-148.68442 l 3.9767,-107.56849 z"
       style="fill:#ffffff;fill-rule:evenodd"
       id="path3428"
       inkscape:connector-curvature="0" />
    <path
       d="m 1781.1594,459.00881 c 0,-20.8697 16.6607,-40.73286 37.0039,-40.73286 l 8.879,0 0,34.91398 c -8.3877,1.92077 -17.8138,3.49241 -25.4468,5.53717 -5.9452,1.59484 -20.4361,8.41838 -20.4361,0.2814 z m -35.5223,-168.7489 c 0,14.27636 12.7025,49.46139 26.6417,49.46139 l 7.4005,0 c 5.0958,0 25.2809,-20.36643 41.4441,-20.36643 l 1.4724,0 c 11.6702,0 17.7611,12.49909 17.7611,24.73069 l 0,13.09281 c 0,8.2163 -2.9602,7.95593 -2.9602,17.45691 -7.1804,-1.64431 -11.6997,-4.36427 -20.7213,-4.36427 l -5.9188,0 c -42.2625,0 -76.9664,36.44142 -76.9664,78.55466 0,0.25975 2.7479,23.6481 3.2004,25.94796 1.4104,7.19586 7.6624,11.60605 12.2794,17.02647 7.4609,8.75854 22.3765,20.16265 35.096,22.23926 46.1231,7.53246 83.0898,-25.9356 87.0744,-25.9356 0.248,0 19.5667,16.00232 38.4824,16.00232 3.1973,-4.69034 5.674,-12.74894 7.4206,-18.89405 2.0598,-7.24888 8.862,-16.34246 8.862,-17.47469 0,-4.67256 -12.766,-17.45692 -16.2826,-17.45692 l -11.8392,0 c -1.5824,-5.82428 -4.4402,-4.76301 -4.4402,-11.63804 l 0,-2.90951 c 0,-24.33906 19.2396,-57.94007 19.2396,-93.10206 0,-42.81132 -35.2154,-90.19254 -76.9648,-90.19254 l -2.9602,0 c -24.2611,0 -87.3271,17.66069 -87.3271,34.91398 l 0,2.90766 z"
       style="fill:#ffffff;fill-rule:evenodd"
       id="path3430"
       inkscape:connector-curvature="0" />
    <path
       d="m 1936.0853,185.5909 c -0.095,-5.49297 -7.152,-11.99711 -9.4739,-15.53362 -7.6131,3.72551 -272.3812,7.75732 -304.2656,7.75732 -53.4924,0 -101.9328,1.55368 -155.1741,1.55368 -25.4024,0 -50.6494,0.24904 -74.5448,0 -23.3112,-0.24576 -50.0209,3.10372 -74.5451,3.10173 -103.7147,0 -208.9532,1.55203 -310.3464,1.55203 -52.22969,0 -104.46982,0.0989 -156.69796,0 -43.63927,-0.0825 -109.6057,-0.5047 -152.13118,3.10372 l -3.35721,18.56542 c -1.67947,11.60406 7.36036,30.41342 7.92076,37.30121 5.31353,1.2634 5.12381,3.10373 10.64921,3.10373 l 120.18499,0 1086.22329,-13.83628 c 2.3577,1.47946 5.5374,4.52512 9.1253,4.52512 0.4175,0 2.7798,-1.07042 4.2185,-1.56853 l 2.2142,-49.62521 z"
       style="fill:#ffffff;fill-rule:evenodd"
       id="path3424"
       inkscape:connector-curvature="0" />
    <path
       d="m 803.52612,120.08082 c -1.87545,2.61747 -3.10442,2.54858 -3.10442,5.80024 l 0,10.15025 c 0,13.72863 23.90803,36.24946 38.80264,36.24946 25.98565,0 40.3537,-18.21827 40.3537,-43.49975 0,-26.64309 -16.27845,-33.218663 -34.14487,-42.051406 -11.7832,2.564466 -21.54452,1.824563 -29.12338,9.042956 -6.13213,5.83907 -12.78367,13.26412 -12.78367,24.30825 z"
       style="fill:#ffffff;fill-rule:evenodd"
       id="path3422"
       inkscape:connector-curvature="0" />
  </g>
</svg>
